# xmcd CD database file
#
# Track frame offsets:
#	187
#	20872
#	40780
#	55805
#	78787
#	92352
#	119295
#	139912
#	154505
#	174850
#
# Disc length: 2586 seconds
#
# Revision: 0
# Processed by: cddbd v1.4PL0 Copyright (c) Steve Scherf et al.
# Submitted via: CDex 1.50
#
DISCID=6f0a180a
DTITLE=Yasuko Agawa - Le Cinema
DYEAR=1900
DGENRE=Jazz
TTITLE0=what'lli do
TTITLE1=On the street here you live
TTITLE2=my favorite things
TTITLE3=up here we belong
TTITLE4=do you know where you're going
TTITLE5=Fantasia
TTITLE6=Smoke gets your eyes
TTITLE7=The geology of love
TTITLE8=Promise me you'll remember
TTITLE9=Smile
EXTD=
EXTT0=
EXTT1=
EXTT2=
EXTT3=
EXTT4=
EXTT5=
EXTT6=
EXTT7=
EXTT8=
EXTT9=
PLAYORDER=
